# xmcd CD database file
#
# Track frame offsets:
#	150
#	27697
#	52332
#	75950
#	93305
#	115125
#	138487
#	160165
#	181255
#	202102
#	219980
#	239182
#
# Disc length: 3420 seconds
#
# Revision: 0
# Processed by: cddbd v1.5PL3 Copyright (c) Steve Scherf et al.
# Submitted via: CDex 1.50beta8
#
DISCID=ad0d5a0c
DTITLE=Woman's Soul - Borderline
DYEAR=2000
DGENRE=Pop
TTITLE0=throw away
TTITLE1=二人の響き
TTITLE2=樫の木の下で
TTITLE3=she said
TTITLE4=ラフレシア
TTITLE5=光る街を背に...
TTITLE6=ecology
TTITLE7=リズム
TTITLE8=Borderline
TTITLE9=雲のゆくえ
TTITLE10=すばらしい明日のために
TTITLE11=四月日記
EXTD=YEAR: 2000
EXTT0=
EXTT1=
EXTT2=
EXTT3=
EXTT4=
EXTT5=
EXTT6=
EXTT7=
EXTT8=
EXTT9=
EXTT10=
EXTT11=
PLAYORDER=
